<?xml version="1.0" encoding="utf-8"?><svg xmlns="http://www.w3.org/2000/svg" xmlns:xlink="http://www.w3.org/1999/xlink"><symbol viewBox="0 0 24 24" id="audio" xmlns="http://www.w3.org/2000/svg"><path d="M11.3 4.4c.9-.8 1.7-.4 1.7.8v13.6c0 1.2-.8 1.6-1.7.8l-2-1.6c-.6-.5-1.5-1.3-2.3-1.9H4c-1.1 0-2-.9-2-2v-4c0-1.1.9-2 2-2h3.1c.8-.7 1.7-1.4 2.3-1.9l1.9-1.8zm8 1c.5-.3 1.1 0 1.4.5.8 2 1.3 4.1 1.3 6.1s-.5 4.1-1.3 6.1c-.2.5-.9.8-1.4.5-.5-.2-.7-.8-.5-1.3.8-1.8 1.2-3.7 1.2-5.4s-.4-3.5-1.2-5.3c-.2-.4 0-1 .5-1.2zm-3.5 1.8c.5-.3 1.2 0 1.4.5.6 1.4.8 2.9.8 4.4s-.3 2.9-.8 4.2c-.2.5-.9.8-1.4.5-.4-.3-.6-.8-.4-1.3.4-1 .7-2.2.7-3.4 0-1.3-.2-2.5-.7-3.7-.3-.4-.1-1 .4-1.2z"/></symbol><symbol viewBox="0 0 24 24" id="back" xmlns="http://www.w3.org/2000/svg"><path d="M21 11H5.4l3.3-3.3c.4-.4.4-1 0-1.4-.4-.4-1-.4-1.4 0l-5 5c-.4.4-.4 1 0 1.4l5.1 5c.4.4 1 .4 1.4 0 .4-.4.4-1 0-1.4L5.4 13H21c.5 0 1-.4 1-1s-.4-1-1-1"/></symbol><symbol viewBox="0 0 24 24" id="book" xmlns="http://www.w3.org/2000/svg"><path d="M18 20H6.9c-.5 0-.9-.4-.9-.9V18c0-.6.4-1 .9-1H18v3zm0-18v8l-2.5-1.5L13 10V2H6c-1.1 0-2 .9-2 2v16c0 1.1.9 2 2 2h13c.5 0 1-.5 1-1V4c0-1.1-.9-2-2-2z"/></symbol><symbol viewBox="0 0 24 24" id="brochure" xmlns="http://www.w3.org/2000/svg"><path d="M17.957 4.668v-2.25c0-.277-.223-.5-.5-.5H4.707c-.273 0-.5.223-.5.5v16.414c0 .273.227.5.5.5h.004c.969-.004 1.562-.004 1.789 0v2.25c0 .277.223.5.5.5h11.832c.277 0 .5-.223.5-.5V5.168c0-.277-.223-.5-.5-.5h-.875zM6.5 18.418H5.121l.004-15.086c0-.273.223-.5.5-.5h8.207l-6.926 1.3a.5.5 0 00-.406.493zm10.543-14.98v1.23H7.418l9.031-1.723a.5.5 0 01.582.399.385.385 0 01.012.094zm.875 17.73h-10a.501.501 0 01-.5-.5V6.082c0-.273.223-.5.5-.5h10c.273 0 .5.227.5.5v14.586c0 .273-.227.5-.5.5zm0 0"/><path d="M16.582 8.332H9.25a.458.458 0 000 .918h7.332c.254 0 .461-.207.461-.457a.462.462 0 00-.461-.461zm0 0M16.582 10.625H9.25a.458.458 0 000 .918h7.332c.254 0 .461-.207.461-.461a.461.461 0 00-.461-.457zm0 0M16.582 12.918H9.25a.455.455 0 00-.457.457c0 .254.203.457.457.457h7.332c.254 0 .461-.203.461-.457a.458.458 0 00-.461-.457zm0 0M14.293 15.207H9.25a.458.458 0 000 .918h5.043a.46.46 0 00.457-.457.461.461 0 00-.457-.461zm0 0"/></symbol><symbol viewBox="0 0 24 24" id="budget" xmlns="http://www.w3.org/2000/svg"><path d="M14.75 7.418c4.047 0 7.332-1.234 7.332-2.75 0-1.52-3.285-2.75-7.332-2.75s-7.332 1.23-7.332 2.75c0 1.516 3.285 2.75 7.332 2.75zm3.668 3.664c2.05-.426 3.664-.875 3.664-1.832V7.418c-1.215.988-3.3 1.52-5.5 1.644 1.012.563 1.535 1.086 1.836 2.02zM9.25 14.75c3.207 0 7.332-1.14 7.332-3.207 0-2.07-3.664-3.211-7.332-3.211-3.668 0-7.332 1.14-7.332 3.211 0 2.066 4.125 3.207 7.332 3.207zm9.168 0c2.187-.414 3.664-.95 3.664-1.832v-1.836c-.457.918-2.75 1.836-3.664 1.836zM9.25 18.418c4.047 0 7.332-1.352 7.332-2.75v-1.836c-1.574 1.348-4.465 2.047-7.332 2.047s-5.758-.7-7.332-2.047v1.836c0 1.398 3.285 2.75 7.332 2.75zm0 3.664c4.047 0 7.332-1.23 7.332-2.746V17.5c-1.574 1.25-4.46 1.836-7.332 1.836-2.871 0-5.758-.586-7.332-1.836v1.836c0 1.516 3.285 2.746 7.332 2.746zm0 0"/></symbol><symbol viewBox="0 0 24 24" id="calendar" xmlns="http://www.w3.org/2000/svg"><path d="M17 2c.6 0 1 .5 1 1v1h1c1.1 0 2 .9 2 2v14c0 1.1-.9 2-2 2H5c-1.1 0-2-.9-2-2V6c0-1.1.9-2 2-2h1V3c0-.5.4-1 1-1s1 .5 1 1v1h8V3c0-.5.4-1 1-1zm2 6H5v11.1c0 .5.4.9.9.9H18c.5 0 .9-.4.9-.9V8h.1zm-8 3c.6 0 1 .4 1 1v3c0 .6-.4 1-1 1H8c-.6 0-1-.4-1-1v-3c0-.6.4-1 1-1h3z"/></symbol><symbol viewBox="0 0 24 24" id="check" xmlns="http://www.w3.org/2000/svg"><path d="M19.2 6.4l-9.9 9.9-3.5-3.6c-.4-.4-1-.4-1.4 0-.4.4-.4 1 0 1.4l4.2 4.2c.4.4 1 .4 1.4 0L20.6 7.8c.4-.4.4-1 0-1.4-.2-.2-.5-.3-.7-.3-.3 0-.5.1-.7.3z"/></symbol><symbol viewBox="0 0 24 24" id="check-filled" xmlns="http://www.w3.org/2000/svg"><path d="M18.4 10.2l-7.1 7.1c-.4.4-1 .4-1.4 0L5.6 13c-.4-.4-.4-1 0-1.4.4-.4 1-.4 1.4 0l3.5 3.6L17 8.7c.4-.4 1-.4 1.4 0 .4.4.4 1.1 0 1.5M12 2C6.5 2 2 6.5 2 12s4.5 10 10 10 10-4.5 10-10S17.5 2 12 2"/></symbol><symbol viewBox="0 0 24 24" id="close" xmlns="http://www.w3.org/2000/svg"><path d="M13.8 12.4l5.7-5.7c.4-.4.4-1 0-1.4s-1-.4-1.4 0L12.4 11 6.7 5.3c-.4-.4-1-.4-1.4 0s-.4 1 0 1.4l5.7 5.7L5.3 18c-.4.4-.4 1 0 1.4s1 .4 1.4 0l5.7-5.7 5.7 5.7c.4.4 1 .4 1.4 0s.4-1 0-1.4l-5.7-5.6z"/></symbol><symbol viewBox="0 0 24 24" id="close-filled" xmlns="http://www.w3.org/2000/svg"><path d="M17 15.5c.4.4.4 1 0 1.4-.4.4-1 .4-1.4 0L12 13.4l-3.5 3.5c-.4.4-1 .4-1.4 0-.4-.4-.4-1 0-1.4l3.5-3.5-3.5-3.5c-.4-.4-.4-1 0-1.4s1-.4 1.4 0l3.5 3.5 3.5-3.5c.4-.4 1-.4 1.4 0 .4.4.4 1 0 1.4L13.4 12l3.6 3.5zM12 2C6.5 2 2 6.5 2 12s4.5 10 10 10 10-4.5 10-10S17.5 2 12 2z"/></symbol><symbol viewBox="0 0 24 24" id="copy" xmlns="http://www.w3.org/2000/svg"><path d="M15.1 6c.5 0 1 .2 1.4.6l4.8 4.8c.4.4.6.9.6 1.4V20c0 1.1-.9 2-2 2H8c-1.1 0-2-.9-2-2V8c0-1.1.9-2 2-2h7.1zM15 2c.6 0 1 .5 1 1s-.5 1-1 1H5c-.6 0-1 .4-1 1v10c0 .6-.5 1-1 1-.6 0-1-.4-1-1V4c0-1.1.9-2 2-2h11zm0 5.5V12c0 .6.5 1 1 1h4.5L15 7.5z"/></symbol><symbol viewBox="0 0 24 24" id="corner-arrow" xmlns="http://www.w3.org/2000/svg"><path d="M18.2 17.147c.2.2.4.3.7.3.3 0 .5-.1.7-.3.4-.4.4-1 0-1.4l-7.1-7.1c-.4-.4-1-.4-1.4 0l-7 7c-.3.4-.3 1 .1 1.4.4.4 1 .4 1.4 0l6.2-6.2 6.4 6.3z"/></symbol><symbol viewBox="0 0 24 24" id="data" xmlns="http://www.w3.org/2000/svg"><path d="M12 9.25c-4.84 0-7.332-1.926-7.332-2.75 0-.824 2.492-2.75 7.332-2.75s7.332 1.926 7.332 2.75c0 .824-2.492 2.75-7.332 2.75zM19.332 12c0 .973-2.492 2.75-7.332 2.75S4.668 12.973 4.668 12V9.25c1.707 1.031 4.36 1.7 7.332 1.832 2.977-.133 5.625-.8 7.332-1.832zm0 5.5c0 .973-2.492 2.75-7.332 2.75s-7.332-1.777-7.332-2.75v-2.75c1.707 1.031 4.36 1.7 7.332 1.832 2.977-.133 5.625-.8 7.332-1.832zM12 1.918c-5.055 0-9.168 1.977-9.168 4.582v11c0 2.605 4.113 4.582 9.168 4.582 5.055 0 9.168-1.977 9.168-4.582v-11c0-2.605-4.113-4.582-9.168-4.582zm0 0"/></symbol><symbol viewBox="0 0 24 24" id="digital" xmlns="http://www.w3.org/2000/svg"><path d="M15 8c1.7 0 3 1.3 3 3s-1.3 3-3 3c-1.3 0-2.4-.8-2.8-2h-.7l-1.3 3 1.3 3h4.7c.4-1.2 1.5-2 2.8-2 1.7 0 3 1.3 3 3s-1.3 3-3 3c-1.3 0-2.4-.9-2.8-2H11h-.1c-.1 0-.2 0-.3-.1-.3-.2-.7-.5-.8-.8L8.4 16H3c-.5 0-1-.4-1-1s.5-1 1-1h5.4l1.3-3.1c.1-.3.5-.7.9-.8h1.6C12.6 8.8 13.7 8 15 8zm4-6c1.7 0 3 1.3 3 3s-1.3 3-3 3c-1.3 0-2.4-.8-2.8-2H8.4L7 9.3c-.1.2-.1.3-.3.4-.1.2-.4.3-.7.3H3c-.5 0-1-.5-1-1s.5-1 1-1h2.4l1.3-3.1c.1-.3.5-.7.9-.8H7.9C7.9 4 8 4 8 4h8.2c.4-1.2 1.5-2 2.8-2z"/></symbol><symbol viewBox="0 0 24 24" id="download" xmlns="http://www.w3.org/2000/svg"><path d="M18.9 20c.6 0 1.1.5 1.1 1 0 .6-.5 1-1.1 1H5.1c-.6 0-1.1-.4-1.1-1 0-.5.5-1 1.1-1h13.8zM14 2c.6 0 1 .4 1 1v7.7h1.6c.9 0 1.3 1.1.7 1.7L12.7 17c-.4.4-1 .4-1.4 0l-4.6-4.6c-.6-.6-.2-1.7.7-1.7H9V3c0-.5.4-1 1-1h4z"/></symbol><symbol viewBox="0 0 24 24" id="edit" xmlns="http://www.w3.org/2000/svg"><path d="M21.7 6c.4-.4.4-1 0-1.4l-2.3-2.3c-.4-.4-1-.4-1.4 0l-1.8 1.8L20 7.9 21.7 6zM2 18.5v3c0 .3.2.5.5.5h3c.1 0 .3-.1.3-.2l13-12.9L15 5.1l-12.9 13c0 .1-.1.2-.1.4z"/></symbol><symbol viewBox="0 0 24 24" id="energy" xmlns="http://www.w3.org/2000/svg"><path d="M12.637 9.184c1.457-.22 2.703 1.394 1.816 2.832-.742 1.199-3.191 1.195-3.367-.817-.04-.476.254-1.18.266-1.199.246-.395.675-.723 1.285-.816zM12 14.75l1.832 1.832.918 5.5h-3.668zm4.035-2.66c1.172 1.726 2.64 4.004 3.13 5.676.093.308.187 1.007-.18 1.285-.364.277-1-.004-1.282-.18-1.55-.969-3.144-2.879-4.594-4.574 1.282.18 2.746-.922 2.926-2.207zm-5.992-2.738c-.848.976-.723 2.808.258 3.656-2.086.043-4.797.035-6.465-.465-.309-.094-.95-.395-.98-.852-.032-.457.55-.836.851-.976 1.656-.774 4.129-1.07 6.336-1.363zm6.812-7.637c.422.18.5.87.489 1.203-.067 1.828-.922 4.164-1.664 6.266-.489-1.204-2.176-1.918-3.375-1.434.906-1.879 2.144-4.29 3.351-5.547.223-.234.778-.664 1.2-.488zm0 0"/></symbol><symbol viewBox="0 0 24 24" id="error" xmlns="http://www.w3.org/2000/svg"><path d="M20 2c1 0 1.9.8 2 1.9V20c0 1-.8 1.9-1.9 2H4c-1 0-1.9-.8-2-1.9V4c0-1 .8-1.9 1.9-2H20zm-8 13c-.6 0-1 .4-1 1s.4 1 1 1 1-.4 1-1-.4-1-1-1zm0-8c-.6 0-1 .4-1 1v5c0 .6.4 1 1 1s1-.4 1-1V8c0-.6-.4-1-1-1z"/></symbol><symbol viewBox="0 0 24 24" id="euro" xmlns="http://www.w3.org/2000/svg"><path d="M12 1.917A10.08 10.08 0 001.917 12 10.08 10.08 0 0012 22.083 10.08 10.08 0 0022.083 12 10.08 10.08 0 0012 1.917zm.813 5.501c.746 0 1.39.21 1.937.457l-.39 1.582c-.375-.34-.923-.508-1.645-.508-.723 0-2.09.3-2.548 1.676h4.125l-.46.918h-3.665c-.007.09-.007.766 0 .914h3.666l-.458.918h-3.208c.458 1.375 1.794 1.676 2.505 1.676.852 0 1.574-.286 2.078-.759v1.833a5.083 5.083 0 01-2.059.457c-1.289 0-2.612-.567-3.44-1.375-.567-.547-.731-1.011-.919-1.832h-.914l.457-.918h.457a35.608 35.608 0 010-.914h-.914l.457-.918h.457c.188-.801.636-1.449 1.19-1.984.837-.816 1.932-1.223 3.291-1.223z"/></symbol><symbol viewBox="0 0 24 24" id="external" xmlns="http://www.w3.org/2000/svg"><path d="M19 20H5c-.6 0-1-.5-1-1V5c0-.6.4-1 1-1h6c.6 0 1-.5 1-1s-.4-1-1-1H4c-1.1 0-2 .9-2 2v16c0 1.1.9 2 2 2h16c1.1 0 2-.9 2-2v-7c0-.6-.5-1-1-1s-1 .4-1 1v6c0 .5-.5 1-1 1M14 3c0 .5.4 1 1 1h3.6l-6.3 6.3c-.4.4-.4 1 0 1.4.4.4 1 .4 1.4 0L20 5.4V9c0 .6.5 1 1 1s1-.4 1-1V3c0-.5-.5-1-1-1h-6c-.5 0-1 .5-1 1"/></symbol><symbol viewBox="0 0 24 24" id="faq" xmlns="http://www.w3.org/2000/svg"><path d="M15.4 10.2c-.9 1.3-1.7 1.7-2.2 2.6-.3.5-.4.8-.4 1.2v.4c0 .6-.5 1-1 1-.6 0-1-.4-1-1v-1c0-.4.1-.9.4-1.2.6-1 1.7-1.6 2.3-2.5.7-1 .3-2.7-1.6-2.7-.9 0-1.4.5-1.8 1-.3.1-.9.3-1.3.1-.6-.3-.8-1-.5-1.5.7-1 1.9-1.8 3.5-1.8 1.7 0 2.9.8 3.5 1.8.6.8.9 2.4.1 3.6m-3.6 9c-.7 0-1.2-.6-1.2-1.2s.6-1.2 1.2-1.2c.7 0 1.2.6 1.2 1.2s-.6 1.2-1.2 1.2M12 2C6.5 2 2 6.5 2 12s4.5 10 10 10 10-4.5 10-10S17.5 2 12 2"/></symbol><symbol viewBox="0 0 24 24" id="feedback" xmlns="http://www.w3.org/2000/svg"><path d="M9 13h9l4 4V4c0-1.1-.9-2-2-2H9c-1.1 0-2 .9-2 2v7c0 1.1.9 2 2 2M2 8v14l4-4h10c1.1 0 2-.9 2-2v-1H6c-.6 0-1-.4-1-1V6H4c-1.1 0-2 .9-2 2"/></symbol><symbol viewBox="0 0 24 24" id="file" xmlns="http://www.w3.org/2000/svg"><path d="M14 9c-.6 0-1-.4-1-1V3.5L18.5 9H14zm4 4.1c0 .5-.4.9-.9.9H6.9c-.5 0-.9-.4-.9-.9v-.2c0-.5.4-.9.9-.9h10.2c.5 0 .9.4.9.9v.2zm-5.1 4c0 .5-.4.9-.9.9H6.9c-.5 0-.9-.4-.9-.9v-.2c0-.5.4-.9.9-.9h5.2c.5 0 .9.4.9.9v.2zm6.5-9.7l-4.8-4.8c-.4-.4-.9-.6-1.4-.6H6c-1.1 0-2 .9-2 2v16c0 1.1.9 2 2 2h12c1.1 0 2-.9 2-2V8.8c0-.5-.2-1-.6-1.4z"/></symbol><symbol viewBox="0 0 24 24" id="fullscreen" xmlns="http://www.w3.org/2000/svg"><path d="M15 3c0 .5.4 1 1 1h4v4c0 .6.5 1 1 1s1-.4 1-1V3c0-.5-.5-1-1-1h-5c-.6 0-1 .5-1 1zm5 17h-4c-.6 0-1 .5-1 1s.4 1 1 1h5c.5 0 1-.5 1-1v-5c0-.6-.5-1-1-1s-1 .4-1 1v4zM3 9c.5 0 1-.4 1-1V4h4c.6 0 1-.5 1-1s-.4-1-1-1H3c-.5 0-1 .5-1 1v5c0 .6.5 1 1 1zm0 6c-.5 0-1 .4-1 1v5c0 .5.5 1 1 1h5c.6 0 1-.5 1-1s-.4-1-1-1H4v-4c0-.6-.5-1-1-1z"/></symbol><symbol viewBox="0 0 24 24" id="gear" xmlns="http://www.w3.org/2000/svg"><path d="M12 17c-2.7 0-4.9-2.2-4.9-4.9s2.2-5 4.9-5 5 2.2 5 5c0 2.6-2.3 4.9-5 4.9zm7.9-4.1c0-.3.1-.6.1-.9v-.9l1.6-1.2c.4-.3.5-.9.3-1.3L20 5.4c-.3-.4-.8-.6-1.3-.4l-1.8.7c-.5-.4-1.1-.8-1.7-1L15 2.9c-.1-.5-.5-.9-1-.9h-3.8c-.5 0-1 .4-1 .9l-.4 1.8c-.6.3-1.2.6-1.7 1L5.3 5c-.5-.2-1 0-1.3.4L2.1 8.6c-.2.5-.1 1 .3 1.3L4 11.1v.9c0 .3 0 .6.1.9l-1.6 1.2c-.5.3-.6.9-.4 1.3L4 18.6c.3.4.8.6 1.3.4l1.8-.7c.5.4 1.1.8 1.7 1l.2 1.8c.1.5.5.9 1 .9h3.8c.5 0 1-.4 1-.9l.2-1.8c.6-.3 1.2-.6 1.7-1l1.8.7c.5.2 1 0 1.3-.4l1.9-3.2c.3-.4.1-1-.3-1.3l-1.5-1.2z"/></symbol><symbol viewBox="0 0 24 24" id="generic-lang" xmlns="http://www.w3.org/2000/svg"><path d="M18.2 13.5h-2.8v-.1c.1-.4.1-1 .1-1.6 0-.6-.1-1.2-.1-1.6v-.1h2.8c.1.6.2 1.1.2 1.6 0 .7 0 1.3-.2 1.8zm-.6 1.6c-.8 1.3-2 2.4-3.5 2.9H14l.1-.1c.5-.9.8-1.8 1.1-2.8h2.4zm-3.7-1.5h-3.8c-.1-.6-.1-1.1-.1-1.7 0-.5 0-1 .1-1.6h3.8c.1.6.1 1.1.1 1.6 0 .6 0 1.1-.1 1.7zm-.3 1.5c-.3 1.1-.9 2.2-1.5 3.2v.1-.1c-.7-1-1.2-2-1.5-3.2V15l3 .1zM9.9 18c-1.5-.5-2.7-1.5-3.5-2.9V15h2.5c.2 1.1.6 2.1 1 3h.1-.1zm-4.1-4.5c-.1-.6-.2-1.1-.2-1.6s.1-1 .2-1.6h2.8v.1c-.1.4-.1 1-.1 1.6 0 .6.1 1.2.1 1.6v.1l-2.8-.2zm.6-4.8c.8-1.3 2-2.4 3.5-2.9h.1v.1c-.5.9-.9 1.8-1.1 2.8H6.4zm4 0c.3-1.1.9-2.2 1.5-3.2v-.1.1c.7 1 1.2 2 1.5 3.2v.1l-3-.1zm3.7-2.9c1.5.5 2.7 1.5 3.5 2.9v.1h-2.5c-.2-1.1-.6-2-1-3H14h.1zM20 2H4c-1.1 0-2 .9-2 2v16c0 1.1.9 2 2 2h16c1.1 0 2-.9 2-2V4c0-1.1-.9-2-2-2z"/></symbol><symbol viewBox="0 0 24 24" id="global" xmlns="http://www.w3.org/2000/svg"><path d="M2 12c0 5.5 4.5 10 10 10s10-4.5 10-10S17.5 2 12 2 2 6.5 2 12zm10-8c.8 1.2 1.5 2.5 1.9 4h-3.8c.4-1.4 1.1-2.8 1.9-4zm2.6.4c1.8.7 3.4 1.9 4.3 3.6h-3c-.2-1.2-.7-2.5-1.3-3.6zm-5.2 0C8.8 5.5 8.4 6.8 8 8H5.1C6 6.3 7.6 5.1 9.4 4.4zm7.1 7.6c0-.7-.1-1.3-.1-2h3.4c.2.6.3 1.3.3 2s-.1 1.4-.3 2h-3.4c0-.7.1-1.3.1-2zm-7 0c0-.7.1-1.3.2-2h4.7c.1.7.2 1.3.2 2s-.1 1.3-.2 2H9.7c-.1-.7-.2-1.3-.2-2zM4 12c0-.7.1-1.4.3-2h3.4c-.1.7-.1 1.3-.1 2s.1 1.3.1 2H4.3c-.2-.6-.3-1.3-.3-2zm12 4h3c-1 1.7-2.5 2.9-4.3 3.6.5-1.1 1-2.4 1.3-3.6zm-5.9 0h3.8c-.4 1.4-1.1 2.8-1.9 4-.8-1.2-1.5-2.6-1.9-4zm-5 0H8c.3 1.2.8 2.5 1.4 3.6-1.8-.7-3.4-1.9-4.3-3.6z"/></symbol><symbol viewBox="0 0 24 24" id="growth" xmlns="http://www.w3.org/2000/svg"><path d="M6 19c.5 0 1 .5 1 1v1c0 .5-.5 1-1 1s-1-.5-1-1v-1c0-.5.4-1 1-1zm4-3c.6 0 1 .5 1 1v4c0 .5-.4 1-1 1-.5 0-1-.5-1-1v-4c0-.5.4-1 1-1zm4-3c.5 0 1 .4 1 1v7c0 .5-.4 1-1 1-.5 0-1-.4-1-1v-7c0-.6.4-1 1-1zm4-2c.5 0 1 .5 1 1v9c0 .6-.5 1-1 1-.6 0-1-.5-1-1v-9c0-.5.4-1 1-1zm3.5-9c.3 0 .5.2.5.5v4.3c0 .4-.5.7-.9.4l-1.4-1.4-5.6 5.6c-.4.4-1 .4-1.4 0L9.4 8l-5.7 5.7c-.4.4-1 .4-1.4 0-.4-.4-.4-1 0-1.4l6.4-6.4c.4-.4 1-.4 1.4 0l3.3 3.3 4.9-4.9-1.4-1.4c-.4-.4-.1-.9.3-.9h4.3z"/></symbol><symbol viewBox="0 0 24 24" id="hamburger" xmlns="http://www.w3.org/2000/svg"><path d="M19.1 16c.5 0 .9.4.9.9v.2c0 .5-.4.9-.9.9H4.9c-.5 0-.9-.4-.9-.9v-.2c0-.5.4-.9.9-.9h14.2zm0-5c.5 0 .9.4.9.9v.2c0 .5-.4.9-.9.9H4.9c-.5 0-.9-.4-.9-.9v-.2c0-.5.4-.9.9-.9h14.2zm0-5c.5 0 .9.4.9.9v.2c0 .5-.4.9-.9.9H4.9c-.5 0-.9-.4-.9-.9v-.2c0-.5.4-.9.9-.9h14.2z"/></symbol><symbol viewBox="0 0 24 24" id="image" xmlns="http://www.w3.org/2000/svg"><path d="M18 18.5H6c-.4 0-.6-.5-.4-.8l2.5-3.2c.2-.3.6-.3.8 0L11 17l3.1-4c.2-.3.6-.3.8 0l3.5 4.7c.2.3 0 .8-.4.8M20 2H4c-1.1 0-2 .9-2 2v16c0 1.1.9 2 2 2h16c1.1 0 2-.9 2-2V4c0-1.1-.9-2-2-2"/></symbol><symbol viewBox="0 0 24 24" id="infographic" xmlns="http://www.w3.org/2000/svg"><path d="M16.1 19.1c.5-.3 1.1-.1 1.4.4.3.5.1 1.1-.4 1.4-.9.5-1.8.9-2.8 1.1h-.2c-.5 0-.9-.3-1-.8-.1-.6.2-1.1.8-1.2.7-.2 1.5-.5 2.2-.9zm-13.3-6c.6-.1 1.1.2 1.2.8.7 3.1 3.1 5.5 6.2 6.2.6.1.9.7.8 1.2-.1.5-.5.8-1 .8h-.2c-3.8-.9-6.9-3.9-7.7-7.7-.2-.6.1-1.2.7-1.3zm17.2.8c.1-.6.7-.9 1.2-.8.6.1.9.7.8 1.2-.3 1.2-.8 2.4-1.5 3.4-.2.3-.5.5-.9.5-.2 0-.4-.1-.6-.2-.5-.3-.6-1-.3-1.4.7-.8 1.1-1.8 1.3-2.7zM12.1 7c.5 0 1 .4 1 1v7.1c0 .5-.4 1-1 1H12c-.5 0-1-.4-1-1V8c0-.5.5-1 1.1-1zM8 13c.6 0 1 .4 1 1v1c0 .6-.4 1-1 1s-1-.4-1-1v-1c0-.6.5-1 1-1zm8-3c.5 0 1 .4 1 1v4c0 .6-.5 1-1 1-.6 0-1-.4-1-1v-4c0-.6.5-1 1-1zM9.7 2c.6-.1 1.1.2 1.2.8.1.6-.2 1.1-.8 1.2-3 .7-5.4 3.1-6.1 6.2-.1.5-.5.8-1 .8h-.2c-.6-.2-.9-.7-.8-1.3.9-3.8 3.9-6.8 7.7-7.7zm3.4.8c.1-.6.7-.9 1.2-.8 3.8.9 6.9 3.9 7.7 7.7.1.6-.2 1.1-.8 1.2H21c-.5 0-.9-.3-1-.8-.7-3.1-3.1-5.5-6.2-6.2-.5 0-.8-.5-.7-1.1z"/></symbol><symbol viewBox="0 0 24 24" id="information" xmlns="http://www.w3.org/2000/svg"><path d="M11 11c0-.6.4-1 1-1s1 .4 1 1v5c0 .5-.4 1-1 1s-1-.5-1-1v-5zm1-4c.6 0 1 .4 1 1s-.4 1-1 1-1-.4-1-1 .4-1 1-1zm0-5C6.5 2 2 6.5 2 12s4.5 10 10 10 10-4.5 10-10S17.5 2 12 2z"/></symbol><symbol viewBox="0 0 24 24" id="language" xmlns="http://www.w3.org/2000/svg"><path d="M20 2H4c-1.1 0-2 .9-2 2v13c0 1.1.9 2 2 2h5l3 3 3-3h5c1.1 0 2-.9 2-2V4c0-1.1-.9-2-2-2"/></symbol><symbol viewBox="0 0 24 24" id="list" xmlns="http://www.w3.org/2000/svg"><path d="M2.7 1.5h1.05a1.2 1.2 0 010 2.398H2.7a1.2 1.2 0 010-2.398zm6 0h12.6a1.2 1.2 0 110 2.398H8.7a1.2 1.2 0 010-2.398zm-6 6.2h1.05a1.2 1.2 0 010 2.402H2.7a1.202 1.202 0 010-2.402zm6 0h12.6a1.202 1.202 0 010 2.402H8.7a1.202 1.202 0 010-2.402zm-6 6.198h1.05a1.2 1.2 0 010 2.403H2.7a1.202 1.202 0 010-2.403zm6 0h12.6a1.202 1.202 0 010 2.402H8.7a1.202 1.202 0 010-2.402zm-6 6.204h1.05a1.2 1.2 0 110 2.398H2.7a1.2 1.2 0 110-2.398zm6 0h12.6a1.2 1.2 0 010 2.398H8.7a1.2 1.2 0 110-2.398zm0 0"/></symbol><symbol viewBox="0 0 24 24" id="livestreaming" xmlns="http://www.w3.org/2000/svg"><path d="M20 3c1.1 0 2 .9 2 2v14c0 1.1-.9 2-2 2h-4c-.6 0-1-.5-1-1s.4-1 1-1h3c.5 0 1-.5 1-1V6c0-.6-.5-1-1-1H5c-.6 0-1 .4-1 1v1c0 .6-.5 1-1 1s-1-.4-1-1V5c0-1.1.9-2 2-2h16zM2 18c1.7 0 3 1.3 3 3H2v-3zm1.1-3.9h.1c3 .5 5.3 2.8 5.8 5.8 0 .6-.4 1.1-1 1.1-.5 0-.9-.4-1-.8-.4-2.1-2-3.7-4.1-4.1-.5-.1-.9-.5-.9-1 0-.6.5-1.1 1.1-1zM3 10h.1c5.2.5 9.3 4.6 9.9 9.8.1.6-.4 1.1-1 1.1-.5 0-.9-.4-1-.9-.4-4.3-3.8-7.7-8.1-8.1-.5.1-.9-.3-.9-.9 0-.6.5-1.1 1.1-1H3z"/></symbol><symbol viewBox="0 0 24 24" id="location" xmlns="http://www.w3.org/2000/svg"><path d="M12.2 12c-1.7 0-3-1.3-3-3s1.3-3 3-3 3 1.3 3 3-1.4 3-3 3m0-10C8.2 2 5 5.2 5 9.2c0 4.3 4.5 10.2 6.4 12.4.4.5 1.2.5 1.6 0 1.9-2.2 6.4-8.2 6.4-12.4 0-4-3.2-7.2-7.2-7.2"/></symbol><symbol viewBox="0 0 24 24" id="log-in" xmlns="http://www.w3.org/2000/svg"><path d="M7 7c0 2.8 2.2 5 5 5s5-2.2 5-5-2.2-5-5-5-5 2.2-5 5zM2 18.2V22h20v-3.8c0-3.3-6.7-5-10-5s-10 1.7-10 5z"/></symbol><symbol viewBox="0 0 24 24" id="logged-in" xmlns="http://www.w3.org/2000/svg"><path d="M21 15.1c.3 0 .5.1.7.3.4.4.4 1 0 1.4l-4.9 4.9c-.2.2-.5.3-.7.3-.3 0-.5-.1-.7-.3l-2.8-2.8c-.4-.4-.4-1 0-1.4.2-.2.5-.3.7-.3.3 0 .5.1.7.3l2.1 2.1 4.2-4.2c.2-.2.5-.3.7-.3zM10 11c2.6 0 7.8 1.3 8 3.9l-1.9 1.9-.7-.7c-.6-.6-1.3-.9-2.1-.9s-1.6.3-2.1.9c-.5.5-.8 1.2-.9 1.9H2v-3c0-2.7 5.3-4 8-4zm0-9c2.2 0 4 1.8 4 4s-1.8 4-4 4-4-1.8-4-4 1.8-4 4-4z"/></symbol><symbol viewBox="0 0 24 24" id="minus" xmlns="http://www.w3.org/2000/svg"><path d="M20 12.1c0 .5-.4.9-.9.9H4.9c-.5 0-.9-.4-.9-.9v-.2c0-.5.4-.9.9-.9h14.2c.5 0 .9.4.9.9v.2z"/></symbol><symbol viewBox="0 0 24 24" id="multiple-files" xmlns="http://www.w3.org/2000/svg"><path d="M20 19c0 .5-.5 1-1 1h-8c-.6 0-1-.5-1-1V5c0-.6.4-1 1-1h4v4c0 .6.4 1 .9 1H20v10zM4 19V5c0-.5.4-1 1-1v16c-.5 0-1-.5-1-1zm3 0V5c0-.5.5-1 1-1v16c-.5 0-1-.5-1-1zM21.4 7.4l-4.8-4.8c-.4-.4-.9-.6-1.4-.6H4c-1.1 0-2 .9-2 2v16c0 1.1.9 2 2 2h16c1.1 0 2-.9 2-2V8.8c0-.5-.2-1-.6-1.4z"/></symbol><symbol viewBox="0 0 24 24" id="organigram" xmlns="http://www.w3.org/2000/svg"><path d="M21 16h-2v-3c0-1.1-.9-2-2-2h-4V8h3c.5 0 1-.4 1-1V3c0-.5-.5-1-1-1H8c-.6 0-1 .5-1 1v4c0 .6.4 1 1 1h3v3H7c-1.1 0-2 .9-2 2v3H3c-.5 0-1 .5-1 1v4c0 .5.5 1 1 1h6c.6 0 1-.5 1-1v-4c0-.5-.4-1-1-1H7v-3h10v3h-2c-.6 0-1 .5-1 1v4c0 .5.4 1 1 1h6c.5 0 1-.5 1-1v-4c0-.5-.5-1-1-1"/></symbol><symbol viewBox="0 0 24 24" id="package" xmlns="http://www.w3.org/2000/svg"><path d="M3.25 9.75h16.5c.277 0 .5.223.5.5v10.375c0 .277-.223.5-.5.5H3.25a.498.498 0 01-.5-.5V10.25c0-.277.223-.5.5-.5zm5.25 4.375h6c.277 0 .5-.223.5-.5V12c0-.277-.223-.5-.5-.5h-6c-.277 0-.5.223-.5.5v1.625c0 .277.223.5.5.5zm12.625-5.75V6.387c0-.09-.023-.18-.07-.254l-2.41-4.016a.503.503 0 00-.426-.242H4.78a.503.503 0 00-.426.242l-2.41 4.016a.478.478 0 00-.07.254v1.988c0 .277.223.5.5.5h18.25c.277 0 .5-.223.5-.5zm0 0"/></symbol><symbol viewBox="0 0 24 24" id="pause" xmlns="http://www.w3.org/2000/svg"><path d="M1.524 12C1.524 6.217 6.217 1.524 12 1.524c5.783 0 10.476 4.693 10.476 10.476 0 5.783-4.693 10.476-10.476 10.476-5.783 0-10.476-4.693-10.476-10.476zm2.095 0a8.384 8.384 0 018.38-8.38A8.384 8.384 0 0120.382 12 8.384 8.384 0 0112 20.381a8.384 8.384 0 01-8.381-8.38zm10.476-4.19a1.048 1.048 0 012.095 0v8.38a1.048 1.048 0 01-2.095 0V7.81zM8.857 6.762c-.579 0-1.048.47-1.048 1.048v8.38a1.048 1.048 0 102.096 0V7.81c0-.579-.47-1.048-1.048-1.048z" fill-rule="evenodd"/></symbol><symbol viewBox="0 0 24 24" id="pause-filled" xmlns="http://www.w3.org/2000/svg"><path d="M12 1.524C6.217 1.524 1.524 6.217 1.524 12c0 5.783 4.693 10.476 10.476 10.476 5.783 0 10.476-4.693 10.476-10.476 0-5.783-4.693-10.476-10.476-10.476zm2.095 6.286a1.048 1.048 0 012.095 0v8.38a1.048 1.048 0 01-2.095 0V7.81zM8.857 6.762c-.579 0-1.048.47-1.048 1.048v8.38a1.048 1.048 0 102.096 0V7.81c0-.579-.47-1.048-1.048-1.048z" fill-rule="evenodd"/></symbol><symbol viewBox="0 0 24 24" id="play" xmlns="http://www.w3.org/2000/svg"><path d="M12 1.524C6.217 1.524 1.524 6.217 1.524 12c0 5.783 4.693 10.476 10.476 10.476 5.783 0 10.476-4.693 10.476-10.476 0-5.783-4.693-10.476-10.476-10.476zm0 2.095A8.384 8.384 0 003.619 12a8.384 8.384 0 008.38 8.381 8.384 8.384 0 008.382-8.38A8.384 8.384 0 0012 3.618zM9.905 8.333v7.334c0 .43.492.68.838.419l4.892-3.667a.52.52 0 000-.838l-4.892-3.667a.524.524 0 00-.838.42z" fill-rule="evenodd"/></symbol><symbol viewBox="0 0 24 24" id="play-filled" xmlns="http://www.w3.org/2000/svg"><path d="M10 15.5v-7c0-.4.5-.7.8-.4l4.7 3.5c.3.2.3.6 0 .8l-4.7 3.5c-.3.2-.8 0-.8-.4M12 2C6.5 2 2 6.5 2 12s4.5 10 10 10 10-4.5 10-10S17.5 2 12 2"/></symbol><symbol viewBox="0 0 24 24" id="plus" xmlns="http://www.w3.org/2000/svg"><path d="M19.1 11H13V4.9c0-.5-.4-.9-.9-.9h-.2c-.5 0-.9.4-.9.9V11H4.9c-.5 0-.9.4-.9.9v.2c0 .5.4.9.9.9H11v6.1c0 .5.4.9.9.9h.2c.5 0 .9-.4.9-.9V13h6.1c.5 0 .9-.4.9-.9v-.2c0-.5-.4-.9-.9-.9"/></symbol><symbol viewBox="0 0 24 24" id="presentation" xmlns="http://www.w3.org/2000/svg"><path d="M5.168 14.75h13.664c.277 0 .5-.223.5-.5V6.082c0-.273-.223-.5-.5-.5H5.168c-.277 0-.5.227-.5.5v8.168c0 .277.223.5.5.5zm16-10.5v.832c0 .277-.227.5-.5.5h-.418v9.586c0 .273-.223.5-.5.5h-6.832v.914l4.582 5.5h-1.832L12 17.5l-3.668 4.582H6.5l4.582-5.5v-.914H4.25a.501.501 0 01-.5-.5V5.582h-.418a.501.501 0 01-.5-.5V4.25c0-.277.227-.5.5-.5h17.336c.273 0 .5.223.5.5zm-11-1.875c0-.254.203-.457.457-.457h2.75c.254 0 .457.203.457.457a.455.455 0 01-.457.457h-2.75a.455.455 0 01-.457-.457zm0 0"/></symbol><symbol viewBox="0 0 24 24" id="print" xmlns="http://www.w3.org/2000/svg"><path d="M18 2c.5 0 .9.4 1 .9V11h1c1 0 1.9.8 2 1.9V19h-3v1.9c0 .6-.4 1-1 1.1H6.1c-.6 0-1-.4-1.1-1v-2H2v-6c0-1.1.8-1.9 1.9-2H5V3c0-.5.4-.9.9-1H18zm-1 15.1H7V20h10v-2.9zm2-4.1c-.6 0-1 .4-1 1s.4 1 1 1 1-.4 1-1-.4-1-1-1zm-2-9H7v7h10V4z"/></symbol><symbol viewBox="0 0 24 24" id="regulation" xmlns="http://www.w3.org/2000/svg"><path d="M21 20c.5 0 1 .5 1 1s-.5 1-1 1H3c-.5 0-1-.5-1-1s.5-1 1-1h18zM6 10c.6 0 1 .5 1 1.2v5.7c0 .6-.4 1.1-1 1.1s-1-.5-1-1.2v-5.7c0-.6.4-1.1 1-1.1zm4 0c.6 0 1 .5 1 1.2v5.7c0 .6-.4 1.2-1 1.2s-1-.5-1-1.2v-5.7c0-.7.4-1.2 1-1.2zm4 0c.6 0 1 .5 1 1.2v5.7c0 .6-.4 1.2-1 1.2s-1-.5-1-1.2v-5.7c0-.7.4-1.2 1-1.2zm4 0c.5 0 1 .5 1 1.2v5.7c0 .6-.5 1.2-1 1.2s-1-.5-1-1.2v-5.7c0-.7.5-1.2 1-1.2zm-7-7.8c.6-.3 1.3-.3 2 0l8.3 3.7c.4.2.7.6.7 1 0 .6-.6 1.1-1.3 1.1H3.3C2.6 8 2 7.5 2 6.9c0-.4.3-.8.7-1L11 2.2z"/></symbol><symbol viewBox="0 0 24 24" id="rss" xmlns="http://www.w3.org/2000/svg"><path d="M4 23a3 3 0 10-.002-6.002A3 3 0 004 23zm4.332-7.332C6.363 13.695 3.734 13 1 13V9c3.941 0 7.66 1.195 10.29 3.82C13.913 15.45 15 18.95 15 23h-4c0-2.734-.695-5.363-2.668-7.332zM19 23c0-9.742-8.367-18-18-18V1c6.02 0 11.602 2.406 15.543 6.457C20.484 11.507 23 16.98 23 23zm0 0"/></symbol><symbol viewBox="0 0 24 24" id="search" xmlns="http://www.w3.org/2000/svg"><path d="M4 10c0-3.3 2.7-6 6-6s6 2.7 6 6-2.7 6-6 6-6-2.7-6-6m17.7 10.3l-5.4-5.4c1.1-1.4 1.7-3.1 1.7-4.9 0-4.4-3.6-8-8-8s-8 3.6-8 8 3.6 8 8 8c1.8 0 3.5-.6 4.9-1.7l5.4 5.4c.4.4 1 .4 1.4 0 .4-.4.4-1 0-1.4"/></symbol><symbol viewBox="0 0 24 24" id="share" xmlns="http://www.w3.org/2000/svg"><path d="M18 16c-.7 0-1.3.2-1.8.6L9 12.4V12v-.4l7.3-4.2c.4.4 1 .6 1.7.6 1.7 0 3-1.3 3-3s-1.3-3-3-3-3 1.3-3 3c0 .3 0 .5.1.8l-7 4.1C7.5 9.3 6.8 9 6 9c-1.7 0-3 1.3-3 3s1.3 3 3 3c.8 0 1.5-.3 2.1-.8l7 4.1c-.1.2-.1.4-.1.7 0 1.7 1.3 3 3 3s3-1.3 3-3-1.3-3-3-3"/></symbol><symbol viewBox="0 0 24 24" id="solid-arrow" xmlns="http://www.w3.org/2000/svg"><path d="M7.4 13L11 9.4c.5-.5 1.4-.5 2 0l3.6 3.6c.9.9.2 2.4-1 2.4H8.4c-1.3 0-1.9-1.5-1-2.4"/></symbol><symbol viewBox="0 0 24 24" id="spinner" xmlns="http://www.w3.org/2000/svg"><path d="M12 17c.6 0 1 .5 1 1v3c0 .5-.4 1-1 1s-1-.5-1-1v-3c0-.5.4-1 1-1zm2.6-.5c.5-.3 1.1-.1 1.4.4l1.5 2.6c.3.5.1 1.1-.4 1.4-.5.3-1.1.1-1.4-.4l-1.5-2.6c-.2-.5 0-1.1.4-1.4zm-6.6.4c.3-.5.9-.6 1.4-.4.5.3.6.9.4 1.4l-1.5 2.6c-.3.5-.9.6-1.4.4s-.6-.9-.4-1.4L8 16.9zm8.5-2.3c.3-.5.9-.6 1.4-.4l2.6 1.5c.5.3.6.9.4 1.4-.3.5-.9.6-1.4.4L16.9 16c-.5-.3-.7-.9-.4-1.4zm-10.4-.3c.5-.3 1.1-.1 1.4.4.3.5.1 1.1-.4 1.4l-2.6 1.5c-.5.3-1.1.1-1.4-.4-.3-.5-.1-1.1.4-1.4l2.6-1.5zM21 11c.5 0 1 .4 1 1s-.5 1-1 1h-3c-.5 0-1-.4-1-1s.5-1 1-1h3zM6 11c.6 0 1 .4 1 1s-.4 1-1 1H3c-.5 0-1-.4-1-1s.5-1 1-1h3zM3.2 6.9c.3-.5.9-.6 1.4-.4L7.1 8c.5.3.6.9.4 1.4-.3.4-.9.6-1.4.3L3.5 8.2c-.4-.2-.6-.9-.3-1.3zm16.3-.4c.5-.3 1.1-.1 1.4.4s.1 1.1-.4 1.4l-2.6 1.5c-.5.3-1.1.1-1.4-.4-.3-.5-.1-1.1.4-1.4l2.6-1.5zM6.9 3.2c.4-.3 1.1-.1 1.3.3l1.5 2.6c.3.5.1 1.1-.3 1.4-.5.3-1.1.1-1.4-.4L6.5 4.5c-.3-.4-.1-1.1.4-1.3zm8.9.3c.3-.5.9-.6 1.4-.4.5.3.6.9.4 1.4L16 7.1c-.3.5-.9.6-1.4.4-.5-.3-.6-.9-.4-1.4l1.6-2.6zM12 2c.6 0 1 .5 1 1v3c0 .6-.4 1-1 1s-1-.4-1-1V3c0-.5.4-1 1-1z"/></symbol><symbol viewBox="0 0 24 24" id="spreadsheet" xmlns="http://www.w3.org/2000/svg"><path d="M17 9h-7c-.6 0-1-.4-1-1s.4-1 1-1h7c.6 0 1 .4 1 1s-.4 1-1 1m0 4h-7c-.6 0-1-.4-1-1s.4-1 1-1h7c.6 0 1 .4 1 1s-.4 1-1 1m0 4h-7c-.6 0-1-.4-1-1s.4-1 1-1h7c.6 0 1 .4 1 1s-.4 1-1 1M6 9c-.6 0-1-.4-1-1s.4-1 1-1 1 .4 1 1-.4 1-1 1m0 4c-.6 0-1-.4-1-1s.4-1 1-1 1 .4 1 1-.4 1-1 1m0 4c-.6 0-1-.4-1-1s.4-1 1-1 1 .4 1 1-.4 1-1 1M20 2H4c-1.1 0-2 .9-2 2v16c0 1.1.9 2 2 2h16c1.1 0 2-.9 2-2V4c0-1.1-.9-2-2-2"/></symbol><symbol viewBox="0 0 24 24" id="success" xmlns="http://www.w3.org/2000/svg"><path d="M18.4 10.2l-7.1 7.1c-.4.4-1 .4-1.4 0L5.6 13c-.4-.4-.4-1 0-1.4.4-.4 1-.4 1.4 0l3.5 3.6L17 8.7c.4-.4 1-.4 1.4 0 .4.4.4 1.1 0 1.5M12 2C6.5 2 2 6.5 2 12s4.5 10 10 10 10-4.5 10-10S17.5 2 12 2"/></symbol><symbol viewBox="0 0 24 24" id="tag" xmlns="http://www.w3.org/2000/svg"><path d="M7 9c-1.1 0-2-.9-2-2s.9-2 2-2 2 .9 2 2-.9 2-2 2m14.4 2.6l-9-9c-.3-.4-.8-.6-1.4-.6H4c-1.1 0-2 .9-2 2v7c0 .6.2 1.1.6 1.4l9 9c.4.4.9.6 1.4.6s1.1-.2 1.4-.6l7-7c.4-.4.6-.9.6-1.4s-.2-1.1-.6-1.4"/></symbol><symbol viewBox="0 0 24 24" id="video" xmlns="http://www.w3.org/2000/svg"><path d="M20.3 7.2L18 9.5V7c0-1.1-.9-2-2-2H4c-1.1 0-2 .9-2 2v10c0 1.1.9 2 2 2h12c1.1 0 2-.9 2-2v-2.5l2.3 2.3c.6.6 1.7.2 1.7-.7V7.9c0-.9-1.1-1.3-1.7-.7"/></symbol><symbol viewBox="0 0 24 24" id="warning" xmlns="http://www.w3.org/2000/svg"><path d="M13 13.3c0 .5-.4 1-1 1s-1-.5-1-1v-2c0-.6.4-1 1-1s1 .4 1 1v2zm-1 4c-.6 0-1-.4-1-1s.4-1 1-1 1 .4 1 1-.4 1-1 1zm9.7 1.5l-3.2-5.6c-.6-1-1.6-2.7-2.2-3.8l-3.2-5.6c-.6-1-1.6-1-2.2 0L7.7 9.4c-.6 1-1.6 2.7-2.2 3.8l-3.2 5.6c-.6 1-.1 1.9 1.1 1.9h17.3c1.2 0 1.6-.9 1-1.9z"/></symbol></svg>